<svg width="144" height="42" viewBox="0 0 144 42" fill="none" xmlns="http://www.w3.org/2000/svg">
<path d="M41.9172 33.4117L26.5268 6.74656L24.9013 5.43233L23.4833 4.84438L21.927 4.29102H19.4714L18.0189 6.74656L32.5446 33.4117H41.9172Z" fill="#0960AF"/>
<path d="M3.04397 7.76352L18.4654 34.4108L20.0924 35.7231L21.5111 36.3094L23.068 36.861L25.5236 36.8581L26.9733 34.4009L12.4165 7.75262L3.04397 7.76352Z" fill="#FF782C"/>
<path d="M31.8164 35.3982L44.9607 7.29977L36.4873 7.30962L22.7539 34.4058C21.3257 36.1119 20.3525 35.8766 18.4654 34.4108C21.6507 42.2054 27.6061 44.1292 31.8164 35.3982Z" fill="#FF782C"/>
<path d="M13.1769 5.74357L0 33.8267H8.47336L22.2383 6.74654C23.6685 5.04208 24.6414 5.27853 26.5268 6.74654C23.3505 -1.05178 17.3973 -2.98248 13.1769 5.74357Z" fill="#3190E6"/>
<path d="M58.758 25.0679C58.758 26.4586 58.6087 27.6206 58.31 28.5539C58.0113 29.4872 57.456 30.1919 56.644 30.6679C55.8413 31.1346 54.684 31.3679 53.172 31.3679C52.5653 31.3679 51.9073 31.3259 51.198 31.2419C50.498 31.1672 49.966 31.0879 49.602 31.0039L49.644 26.6779C49.9053 26.7246 50.204 26.7806 50.54 26.8459C50.876 26.9019 51.2213 26.9299 51.576 26.9299C52.5373 26.9299 53.1767 26.6826 53.494 26.1879C53.8207 25.6932 53.984 24.9046 53.984 23.8219V10.8439H58.758V25.0679ZM67.0097 16.6119V31.0879H62.4597V16.6119H67.0097ZM67.0237 10.8439V14.9879H62.4457V10.8439H67.0237ZM70.6381 31.0879V16.6119H75.3421V18.6419C75.5474 18.3059 75.8181 17.9746 76.1541 17.6479C76.4994 17.3212 76.9334 17.0506 77.4561 16.8359C77.9881 16.6212 78.6321 16.5139 79.3881 16.5139C80.2561 16.5139 81.0728 16.6819 81.8381 17.0179C82.6128 17.3539 83.2428 17.8906 83.7281 18.6279C84.2134 19.3559 84.4561 20.3126 84.4561 21.4979V31.0879H79.6681V22.1279C79.6681 21.4932 79.4628 21.0172 79.0521 20.6999C78.6414 20.3732 78.1701 20.2099 77.6381 20.2099C77.2834 20.2099 76.9334 20.2799 76.5881 20.4199C76.2428 20.5506 75.9581 20.7512 75.7341 21.0219C75.5101 21.2832 75.3981 21.6146 75.3981 22.0159V31.0879H70.6381ZM111.405 10.8439L105.385 31.0879H101.717L98.2166 18.9639L94.6886 31.0879H91.0766L85.0426 10.8439H89.6766L93.1346 22.9539L96.5226 10.8439H99.9106L103.383 22.9539L106.771 10.8439H111.405ZM116.164 24.9419C116.154 25.6046 116.257 26.1646 116.472 26.6219C116.686 27.0699 116.99 27.4106 117.382 27.6439C117.774 27.8772 118.231 27.9939 118.754 27.9939C119.351 27.9939 119.878 27.8726 120.336 27.6299C120.802 27.3779 121.143 26.9439 121.358 26.3279H125.614C125.455 27.3826 125.035 28.2879 124.354 29.0439C123.682 29.7906 122.86 30.3646 121.89 30.7659C120.919 31.1672 119.916 31.3679 118.88 31.3679C117.405 31.3679 116.108 31.0646 114.988 30.4579C113.877 29.8512 113.009 28.9972 112.384 27.8959C111.768 26.7946 111.46 25.5019 111.46 24.0179C111.46 22.6086 111.744 21.3252 112.314 20.1679C112.883 19.0012 113.704 18.0726 114.778 17.3819C115.851 16.6819 117.144 16.3319 118.656 16.3319C120.186 16.3319 121.465 16.6539 122.492 17.2979C123.518 17.9326 124.288 18.8099 124.802 19.9299C125.324 21.0406 125.586 22.3146 125.586 23.7519V24.9419H116.164ZM116.15 22.1979H121.162C121.162 21.7219 121.068 21.2879 120.882 20.8959C120.695 20.4946 120.415 20.1772 120.042 19.9439C119.668 19.7106 119.206 19.5939 118.656 19.5939C118.152 19.5939 117.713 19.7199 117.34 19.9719C116.966 20.2146 116.672 20.5366 116.458 20.9379C116.243 21.3299 116.14 21.7499 116.15 22.1979ZM128.408 31.0879V16.6119H133.112V18.6419C133.317 18.3059 133.588 17.9746 133.924 17.6479C134.269 17.3212 134.703 17.0506 135.226 16.8359C135.758 16.6212 136.402 16.5139 137.158 16.5139C138.026 16.5139 138.842 16.6819 139.608 17.0179C140.382 17.3539 141.012 17.8906 141.498 18.6279C141.983 19.3559 142.226 20.3126 142.226 21.4979V31.0879H137.438V22.1279C137.438 21.4932 137.232 21.0172 136.822 20.6999C136.411 20.3732 135.94 20.2099 135.408 20.2099C135.053 20.2099 134.703 20.2799 134.358 20.4199C134.012 20.5506 133.728 20.7512 133.504 21.0219C133.28 21.2832 133.168 21.6146 133.168 22.0159V31.0879H128.408Z" fill="white"/>
</svg>
